<svg width="25" height="27" viewBox="0 0 25 27" fill="none" xmlns="http://www.w3.org/2000/svg">
<path d="M21.3288 9.58879C21.3288 7.4867 20.6405 5.51184 19.3769 3.90206C19.35 3.86336 19.3177 3.82464 19.2909 3.78591C19.1564 3.62546 19.0166 3.47059 18.8768 3.32122C18.8123 3.2493 18.7478 3.17739 18.6833 3.11101C18.6402 3.06678 18.6026 3.02251 18.5596 2.97825C18.5435 2.96167 18.5219 2.9506 18.5004 2.93952C17.9305 2.39188 17.2906 1.92168 16.597 1.54552C16.5862 1.53445 16.5754 1.52338 16.5647 1.51784C16.3711 1.41273 16.1668 1.3187 15.9625 1.23021C15.9356 1.21913 15.9087 1.20806 15.8818 1.19702C15.6398 1.09191 15.4033 1.00338 15.1559 0.920424C15.1398 0.914887 15.129 0.90935 15.1129 0.903813C14.8709 0.831896 14.629 0.765517 14.387 0.715749C14.3225 0.699138 14.2579 0.68256 14.1934 0.671485C13.9514 0.621684 13.7095 0.582957 13.4675 0.555305C13.4084 0.549768 13.3546 0.544264 13.3008 0.538727C13.0374 0.516578 12.7685 0.5 12.4996 0.5C12.2308 0.5 11.9673 0.516578 11.6985 0.538727C11.6447 0.544264 11.5909 0.549768 11.5372 0.555305C11.2898 0.582957 11.0478 0.621684 10.8059 0.671485C10.7413 0.68256 10.6768 0.699138 10.6177 0.715749C10.3703 0.765517 10.1284 0.831896 9.8864 0.903813C9.87564 0.90935 9.85951 0.914887 9.84876 0.920424C9.60142 1.00338 9.35408 1.09191 9.11749 1.19702C9.0906 1.20806 9.06371 1.21913 9.03682 1.23021C8.8325 1.3187 8.63355 1.41273 8.4346 1.51784C8.42384 1.52338 8.41309 1.53445 8.40234 1.54552C7.70869 1.92168 7.06883 2.39188 6.49886 2.93952C6.47735 2.9506 6.46122 2.96167 6.43971 2.97825C6.3967 3.02251 6.35906 3.06678 6.31604 3.11101C6.25152 3.17739 6.187 3.2493 6.12247 3.32122C5.98266 3.47059 5.84286 3.62546 5.70844 3.78591C5.68155 3.82464 5.65466 3.86336 5.6224 3.90206C4.36418 5.5063 3.67053 7.48117 3.67053 9.58879C3.67053 14.5951 7.63341 18.672 12.4996 18.672C17.3659 18.672 21.3288 14.5951 21.3288 9.58879ZM16.6201 9.02342L15.0387 10.6094C14.9365 10.7117 14.8897 10.8595 14.9139 11.0049L15.2871 13.2437C15.3479 13.6088 14.9758 13.887 14.6575 13.7144L12.7024 12.6573C12.576 12.5893 12.4249 12.5893 12.2985 12.6573L10.344 13.7144C10.0251 13.887 9.65304 13.6088 9.7138 13.2437L10.087 11.0049C10.1112 10.8595 10.0644 10.7117 9.96222 10.6094L8.38082 9.02342C8.12327 8.7651 8.26522 8.31482 8.62172 8.26171L10.807 7.93478C10.9484 7.91375 11.0704 7.82248 11.1339 7.69027L12.1109 5.6529C12.2706 5.32097 12.7309 5.32097 12.89 5.6529L13.867 7.69027C13.9305 7.82248 14.0525 7.91375 14.194 7.93478L16.3792 8.26171C16.7357 8.31482 16.8776 8.7651 16.6201 9.02342Z" fill="#3758F9"/>
<path d="M5.09054 15.4751L0.536175 23.5184C0.482402 23.6124 0.487776 23.7397 0.55768 23.8282C0.622202 23.9167 0.735124 23.9554 0.842663 23.9222L5.04214 22.6554L6.9026 26.3507C6.94562 26.4392 7.03703 26.5001 7.13381 26.5001H7.13919C7.23597 26.5001 7.32738 26.4447 7.37578 26.3562L11.3279 19.1482C8.79532 18.8219 6.5746 17.4555 5.09054 15.4751Z" fill="#3758F9"/>
<path d="M24.4639 23.5184L19.9095 15.4751C18.4254 17.4555 16.2047 18.8218 13.6721 19.1482L17.6243 26.3562C17.6726 26.4447 17.7641 26.5 17.8608 26.5H17.8662C17.963 26.5 18.0544 26.4392 18.0974 26.3507L19.9579 22.6554L24.1574 23.9222C24.2649 23.9554 24.3778 23.9167 24.4423 23.8282C24.5123 23.7397 24.5176 23.6124 24.4639 23.5184Z" fill="#3758F9"/>
</svg>
