<?xml version='1.0' encoding='utf-8'?>
<svg xmlns="http://www.w3.org/2000/svg" width="17.672mm" height="23.866mm" clip-rule="evenodd" fill-rule="evenodd" image-rendering="optimizeQuality" shape-rendering="geometricPrecision" text-rendering="geometricPrecision" version="1.0" viewBox="0 0 886 1196">
 <defs>
  <style type="text/css">
   
    .fil1 {fill:#000066}
    .fil0 {fill:#6666CC}
    .fil2 {fill:white;fill-rule:nonzero}
   
  </style>
 </defs>
   <path class="fil0" d="m35 0h602l249 273v884c0 22-16 39-36 39h-815c-19 0-35-17-35-39v-1118c0-21 16-39 35-39z"/>
   <path class="fil1" d="m886 273h-213c-20 0-36-18-36-39v-234l249 273z"/>
  <path class="fil2" d="m211 636c6 0 12 3 16 7 5 5 7 10 7 17 0 6-2 12-7 16-4 5-10 7-16 7-7 0-12-2-17-7-5-4-7-10-7-16 0-7 2-12 7-17 5-4 10-7 17-7zm104-120v18c7-7 15-12 24-16s18-6 27-6c22 0 40 8 55 24 15 17 22 37 22 62 0 24-8 45-23 61s-34 24-55 24c-9 0-18-1-26-5-8-3-16-8-24-16v77h-41v-223h41zm43 34c-13 0-24 4-32 13-9 9-13 20-13 34 0 15 4 27 13 36 8 8 19 13 32 13 12 0 23-5 31-14 9-9 13-20 13-34s-4-26-12-35c-9-9-19-13-32-13zm239-96h41v225h-41v-17c-8 8-16 13-24 16-8 4-16 5-26 5-21 0-39-8-55-24-15-16-23-37-23-61 0-25 8-45 23-62 15-16 33-24 54-24 10 0 19 2 27 6 9 4 17 9 24 16v-80zm-43 96c-12 0-23 4-31 13-9 9-13 21-13 35s4 25 13 34 19 14 31 14c13 0 24-5 32-13 9-9 13-21 13-36 0-14-4-25-13-34-8-9-19-13-32-13zm106-34h14c0-21 1-33 1-37 2-9 5-16 12-22 6-5 15-7 27-7 8 0 18 1 29 5v31c-6-1-11-2-15-2-5 0-8 1-10 3-2 1-3 4-3 9v20h26v35h-26v128h-41v-128h-14v-35z"/>
</svg>