<svg width="24" height="24" viewBox="0 0 24 24" fill="none" xmlns="http://www.w3.org/2000/svg">
<path d="M12 3C7.03725 3 3 7.03725 3 12C3 16.9628 7.03725 21 12 21C16.9628 21 21 16.9628 21 12C21 7.03725 16.9628 3 12 3ZM12 4.5C16.1512 4.5 19.5 7.84875 19.5 12C19.5 16.1512 16.1512 19.5 12 19.5C7.84875 19.5 4.5 16.1512 4.5 12C4.5 7.84875 7.84875 4.5 12 4.5ZM12.0233 5.883C11.1407 5.9024 10.3008 6.26641 9.68328 6.89715C9.06571 7.52789 8.71952 8.37527 8.71875 9.258V10.1722C8.71875 10.3297 8.84175 10.4528 9 10.4528H9.7035C9.74045 10.4532 9.7771 10.4462 9.81132 10.4322C9.84553 10.4183 9.87661 10.3976 9.90274 10.3715C9.92887 10.3454 9.94951 10.3143 9.96347 10.2801C9.97742 10.2459 9.9844 10.2092 9.984 10.1722V9.25725C9.984 8.115 10.86 7.14225 12 7.10175C13.1985 7.0575 14.2035 8.02125 14.2035 9.21075V10.1715C14.2035 10.3298 14.3265 10.4535 14.4847 10.4535H15.1642C15.2014 10.454 15.2382 10.4471 15.2727 10.4331C15.3071 10.419 15.3383 10.3983 15.3645 10.372C15.3907 10.3457 15.4114 10.3144 15.4253 10.28C15.4392 10.2455 15.4461 10.2086 15.4455 10.1715V9.3045C15.4455 7.41825 13.9102 5.847 12.0233 5.883ZM7.8285 10.758C7.48275 10.758 7.1955 11.0212 7.1955 11.367V16.2188C7.1955 16.5638 7.48275 16.8285 7.8285 16.8285H16.3125C16.6575 16.8285 16.9455 16.5645 16.9455 16.2188V11.367C16.9455 11.022 16.6582 10.758 16.3125 10.758H7.8285ZM7.9455 11.367H8.22675C8.26389 11.3676 8.29934 11.3827 8.32554 11.409C8.35174 11.4353 8.36661 11.4709 8.367 11.508V16.1017C8.36642 16.1388 8.35146 16.1741 8.32528 16.2003C8.2991 16.2265 8.26377 16.2414 8.22675 16.242H7.9455C7.90835 16.2416 7.87283 16.2267 7.84649 16.2005C7.82015 16.1743 7.80508 16.1389 7.8045 16.1017V11.508C7.80489 11.4707 7.81987 11.4351 7.84623 11.4087C7.87259 11.3824 7.90823 11.3674 7.9455 11.367ZM12.0472 11.9767C12.7057 11.9767 13.242 12.513 13.242 13.1722C13.2436 13.3804 13.1903 13.5854 13.0874 13.7664C12.9846 13.9475 12.8359 14.0982 12.6562 14.2035V15.3285C12.6562 15.492 12.5153 15.6097 12.3517 15.6097H11.742C11.5778 15.6097 11.4375 15.492 11.4375 15.3285V14.2035C11.2579 14.0982 11.1092 13.9475 11.0063 13.7664C10.9035 13.5854 10.8502 13.3804 10.8517 13.1722C10.8517 12.5122 11.388 11.9767 12.0472 11.9767Z" fill="#251D3F"/>
</svg>
