<svg width="190" height="109" viewBox="0 0 190 109" fill="none" xmlns="http://www.w3.org/2000/svg">
  <path
    d="M122.794 5C115.454 5.00247 108.249 6.85149 101.926 10.3551C95.6032 13.8588 90.3931 18.8894 86.8366 24.9247C84.0304 24.2689 81.1509 23.9306 78.2593 23.9169C70.8253 23.9263 63.5736 26.0803 57.4837 30.088C51.3938 34.0957 46.7593 39.7639 44.2063 46.3269H33.9148C18.4501 46.3269 6 58.777 6 74.2416C6 89.7063 18.4501 102.156 33.9148 102.156H155.677C171.142 102.156 183.591 89.7063 183.591 74.2416C183.591 61.5733 175.235 50.9328 163.712 47.4974C163.848 46.2208 163.916 44.9385 163.916 43.6555C163.916 38.5792 162.853 33.5526 160.786 28.8627C158.719 24.1728 155.69 19.9115 151.872 16.322C148.053 12.7325 143.52 9.88511 138.531 7.94248C133.542 5.99986 128.195 5 122.794 5Z"
    stroke="#1D4FD7" stroke-opacity="0.75" stroke-width="3" stroke-dasharray="5" />
  <path
    class="upd-arrow"
    d="M105.758 62.679L115.64 71.762L115.594 71.761C115.688 71.8375 115.749 71.9527 115.749 72.0833V72.9954C115.749 73.2255 115.562 73.4121 115.332 73.4124H107.545C107.565 73.4367 107.578 73.4664 107.578 73.5002V94.093C107.578 94.1712 107.515 94.2346 107.437 94.2346H84.9368C84.8586 94.2346 84.7952 94.1712 84.7952 94.093V73.5002C84.7952 73.4664 84.8086 73.4367 84.8284 73.4124H76.8879C76.6576 73.4124 76.4711 73.2257 76.4709 72.9954V72.0833C76.471 71.9573 76.5273 71.8453 76.6155 71.7688L76.5657 71.7698L86.4348 62.6838L96.0901 53.5295L105.758 62.679Z"
    fill="#1D4FD7" fill-opacity="0.75" />
</svg>