<svg width="40" height="40" viewBox="0 0 40 40" fill="none" xmlns="http://www.w3.org/2000/svg">
<mask id="mask0_2101_7547" style="mask-type:luminance" maskUnits="userSpaceOnUse" x="0" y="0" width="40" height="40">
<path d="M0 0H40V40H0V0Z" fill="white"/>
</mask>
<g mask="url(#mask0_2101_7547)">
<path d="M20 40C31.046 40 40 31.046 40 20C40 8.954 31.046 0 20 0C8.954 0 0 8.954 0 20C0 31.046 8.954 40 20 40Z" fill="#FF0002"/>
<path d="M29.7301 17.0497C29.1251 16.4257 28.2651 16.0847 27.2151 16.0847C25.9101 16.0847 24.9081 16.6147 24.3311 17.6077V12.6797H21.3051V26.1837H24.3311V21.4357C24.3311 20.3297 24.5581 19.6207 24.8991 19.2047C25.2291 18.7887 25.6931 18.6277 26.1941 18.6277C26.6391 18.6277 26.9881 18.7697 27.2341 19.0247C27.4801 19.2897 27.6221 19.6967 27.6221 20.2637V26.1737H30.6481V19.6677C30.6481 18.5617 30.3261 17.6627 29.7311 17.0477L29.7301 17.0497ZM16.1991 16.0847C14.8941 16.0847 13.8911 16.6147 13.3151 17.6077V12.6797H10.2891V26.1837H13.3151V21.4357C13.3151 20.3297 13.5411 19.6207 13.8821 19.2047C14.2121 18.7887 14.6761 18.6277 15.1781 18.6277C15.6221 18.6277 15.9721 18.7697 16.2181 19.0247C16.4631 19.2897 16.6051 19.6967 16.6051 20.2637V26.1737H19.6311V19.6677C19.6311 18.5617 19.3101 17.6627 18.7051 17.0387C18.1091 16.4147 17.2481 16.0847 16.1991 16.0847Z" fill="white"/>
</g>
</svg>
