<svg xmlns="http://www.w3.org/2000/svg" version="1.1" xmlns:xlink="http://www.w3.org/1999/xlink" xmlns:svgjs="http://svgjs.dev/svgjs" width="100" height="100"><svg width="100" height="100" viewBox="0 0 100 100" fill="none" xmlns="http://www.w3.org/2000/svg">
<path fill-rule="evenodd" clip-rule="evenodd" d="M13.3475 34.1807C17.543 29.9852 23.2333 27.6282 29.1667 27.6282C35.1001 27.6282 40.7904 29.9852 44.986 34.1807C49.1815 38.3762 51.5385 44.0666 51.5385 50C51.5385 55.1173 53.5714 60.025 57.1899 63.6435C60.8083 67.262 65.7161 69.2948 70.8334 69.2948C75.9507 69.2948 80.8584 67.262 84.4769 63.6435C88.0954 60.025 90.1283 55.1173 90.1283 50C90.1283 49.1503 90.8171 48.4615 91.6667 48.4615C92.5164 48.4615 93.2052 49.1503 93.2052 50C93.2052 55.9333 90.8482 61.6237 86.6526 65.8192C82.4571 70.0147 76.7668 72.3718 70.8334 72.3718C64.9 72.3718 59.2097 70.0147 55.0141 65.8192C50.8186 61.6237 48.4616 55.9333 48.4616 50C48.4616 44.8827 46.4287 39.9749 42.8103 36.3564C39.1918 32.7379 34.284 30.7051 29.1667 30.7051C24.0494 30.7051 19.1417 32.7379 15.5232 36.3564C11.9047 39.9749 9.87185 44.8827 9.87185 50C9.87185 50.8496 9.18305 51.5384 8.33338 51.5384C7.48371 51.5384 6.79492 50.8496 6.79492 50C6.79492 44.0666 9.15194 38.3762 13.3475 34.1807Z" fill="black"></path>
<path fill-rule="evenodd" clip-rule="evenodd" d="M69.5032 13.3934C69.9303 12.6588 70.872 12.4096 71.6065 12.8366C74.134 14.3061 76.3474 16.259 78.1201 18.5839C79.8929 20.9088 81.1904 23.56 81.9385 26.3863C82.6867 29.2126 82.8708 32.1586 82.4804 35.0561C82.09 37.9535 81.1327 40.7457 79.6633 43.2732C78.1938 45.8007 76.2409 48.0141 73.916 49.7868C71.5911 51.5596 68.9399 52.8571 66.1136 53.6052C63.2873 54.3534 60.3413 54.5375 57.4438 54.1471C54.5479 53.7569 51.7571 52.8005 49.2306 51.3323C44.7779 48.7742 39.4914 48.0893 34.5338 49.4282C29.5751 50.7674 25.3515 54.0216 22.7921 58.4749C20.2328 62.9282 19.5473 68.2158 20.8865 73.1745C22.2257 78.1332 25.4799 82.3567 29.9332 84.9161C30.6699 85.3395 30.9238 86.2799 30.5005 87.0166C30.0771 87.7532 29.1367 88.0072 28.4 87.5838C23.2392 84.6179 19.468 79.7232 17.916 73.9767C16.364 68.2302 17.1584 62.1025 20.1244 56.9417C23.0904 51.7809 27.985 48.0097 33.7315 46.4577C39.478 44.9057 45.6057 45.7001 50.7665 48.6661L50.7732 48.6699C52.9514 49.9364 55.3577 50.7613 57.8547 51.0978C60.3517 51.4342 62.8905 51.2755 65.3262 50.6308C67.7619 49.986 70.0467 48.8678 72.0503 47.3401C74.0538 45.8123 75.7369 43.9049 77.0032 41.7267C78.2696 39.5485 79.0946 37.1422 79.431 34.6452C79.7675 32.1482 79.6088 29.6094 78.964 27.1737C78.3193 24.738 77.2011 22.4532 75.6734 20.4496C74.1456 18.4461 72.2382 16.763 70.06 15.4967C69.3254 15.0696 69.0762 14.1279 69.5032 13.3934Z" fill="black"></path>
<path fill-rule="evenodd" clip-rule="evenodd" d="M44.4929 13.1192C39.5738 11.8171 34.339 12.5224 29.9399 15.08C29.2054 15.5071 28.2637 15.2578 27.8366 14.5233C27.4096 13.7887 27.6588 12.8471 28.3934 12.42C33.4979 9.45225 39.5723 8.63381 45.2803 10.1447C50.9883 11.6557 55.8622 15.3722 58.83 20.4767C61.7977 25.5813 62.6162 31.6557 61.1052 37.3637C59.5943 43.0716 55.8778 47.9456 50.7732 50.9134C46.3742 53.4709 43.1713 57.6713 41.8692 62.5904C40.5671 67.5095 41.2724 72.7444 43.83 77.1434C46.3876 81.5425 50.5879 84.7454 55.507 86.0475C60.4261 87.3496 65.661 86.6443 70.0601 84.0867C70.7946 83.6596 71.7363 83.9089 72.1633 84.6434C72.5904 85.378 72.3411 86.3196 71.6066 86.7467C66.502 89.7144 60.4276 90.5329 54.7197 89.0219C49.0117 87.511 44.1377 83.7945 41.17 78.6899C38.2022 73.5854 37.3838 67.511 38.8947 61.803C40.4056 56.0951 44.1222 51.2211 49.2267 48.2533C53.6258 45.6957 56.8287 41.4954 58.1308 36.5763C59.4329 31.6572 58.7276 26.4223 56.17 22.0233C53.6124 17.6242 49.412 14.4213 44.4929 13.1192Z" fill="black"></path>
<path fill-rule="evenodd" clip-rule="evenodd" d="M50.0001 9.87185C27.8379 9.87185 9.87185 27.8379 9.87185 50.0001C9.87185 72.1622 27.8379 90.1283 50.0001 90.1283C72.1622 90.1283 90.1283 72.1622 90.1283 50.0001C90.1283 27.8379 72.1622 9.87185 50.0001 9.87185ZM6.79492 50.0001C6.79492 26.1385 26.1385 6.79492 50.0001 6.79492C73.8616 6.79492 93.2052 26.1385 93.2052 50.0001C93.2052 73.8616 73.8616 93.2052 50.0001 93.2052C26.1385 93.2052 6.79492 73.8616 6.79492 50.0001Z" fill="black"></path>
</svg><style>@media (prefers-color-scheme: light) { :root { filter: none; } }
@media (prefers-color-scheme: dark) { :root { filter: none; } }
</style></svg>