<svg width="163" height="163" viewBox="0 0 163 163" fill="none" xmlns="http://www.w3.org/2000/svg">
<path d="M163 81.5C163 126.511 126.511 163 81.5 163C36.4888 163 0 126.511 0 81.5C0 36.4888 36.4888 0 81.5 0C126.511 0 163 36.4888 163 81.5Z" fill="white"/>
<path d="M91.9273 115.882L91.9279 115.822L91.9419 113.117L91.9425 113.057L91.9361 112.998L91.8547 112.414C91.3811 109.511 89.8855 106.865 87.6282 104.959C85.2204 102.926 82.1274 101.889 78.9809 102.06C75.8344 102.232 72.8715 103.599 70.6988 105.881C68.5262 108.163 67.3068 111.19 67.2902 114.341L67.2909 114.343C67.2869 115.723 67.5141 117.089 67.9587 118.387L45.8307 115.616L48.973 90.5225L47.2749 91.4211C45.6925 92.2585 43.9214 92.6712 42.1358 92.6209L41.7786 92.6047C39.1438 92.4328 36.6739 91.2612 34.8733 89.3297C33.0721 87.3976 32.0761 84.8504 32.09 82.209C32.1039 79.5678 33.1262 77.0315 34.9472 75.1184C36.6547 73.3249 38.9443 72.2061 41.3971 71.9549L41.8892 71.9161C43.2519 71.843 44.6157 72.0392 45.9021 72.4944C47.1888 72.9498 48.3728 73.6552 49.3861 74.5694L50.8098 75.8539L54.0533 49.9527L79.7898 53.1755L78.9184 51.4887C78.2017 50.1016 77.8078 48.5711 77.7654 47.0129L77.7622 46.7005C77.7767 44.06 78.7985 41.5245 80.6192 39.6119C82.4404 37.6989 84.9237 36.5533 87.5612 36.4096C88.2515 36.3721 88.944 36.4037 89.6279 36.5041C91.8886 36.8355 93.9762 37.9058 95.5664 39.5468C97.1443 41.1752 98.1435 43.2755 98.4129 45.5259L98.3989 48.0978C98.1315 50.1457 97.2587 52.0675 95.8911 53.6161L94.6387 55.0349L119.716 58.1752L116.929 80.434C116.086 79.8745 115.175 79.4198 114.217 79.0807C112.682 78.5374 111.054 78.3022 109.429 78.3895L109.427 78.3904C106.281 78.562 103.319 79.9281 101.146 82.2104C98.9738 84.4927 97.7544 87.5187 97.7379 90.6698C97.7214 93.8209 98.909 96.8598 101.058 99.1647C103.206 101.47 106.155 102.867 109.299 103.072L109.301 103.072C110.963 103.176 112.621 102.941 114.179 102.392L111.494 123.838L90.014 121.148C91.031 119.586 91.686 117.807 91.9198 115.942L91.9273 115.882Z" fill="url(#paint0_linear_534_406)" stroke="#013F69" stroke-width="2"/>
<defs>
<linearGradient id="paint0_linear_534_406" x1="61.2553" y1="31.9414" x2="88.7792" y2="122.002" gradientUnits="userSpaceOnUse">
<stop stop-color="#1A3CA1"/>
<stop offset="0.485577" stop-color="#1B52E9"/>
<stop offset="1" stop-color="#3C84F7"/>
</linearGradient>
</defs>
</svg>
