<svg width="938" height="669" viewBox="0 0 938 669" fill="none" xmlns="http://www.w3.org/2000/svg">
  <path fill-rule="evenodd" clip-rule="evenodd"
    d="M83.2818 2.10976C76.8988 4.56376 70.2298 10.8548 66.9528 17.5158L64.4998 22.4998L64.2408 192.25C64.0988 285.613 63.8108 362 63.6018 362C60.7028 362 44.3148 365.783 36.9998 368.142C13.0518 375.862 0.0398232 387.397 0.00982318 400.934C-0.0181768 413.623 10.1688 422.015 32.0828 427.354C40.8118 429.481 62.0048 432.983 66.2838 433.007C66.9528 433.01 66.1868 433.879 64.5818 434.937C61.1418 437.204 55.6778 443.874 52.6518 449.5C50.5978 453.318 50.5018 454.731 50.5388 480.5C50.5768 506.358 50.6738 507.711 52.8398 512.5C55.3588 518.068 59.4948 522.796 65.4998 526.974C68.6788 529.186 70.1378 531.31 72.6128 537.328L75.7248 544.9L72.8628 545.898C68.9688 547.255 69.2438 548.233 73.3038 547.471C76.4878 546.873 76.7718 547.098 81.1588 553.676C83.6628 557.429 87.8638 562.886 90.4958 565.803L95.2808 571.106L92.1318 575.303C76.9978 595.479 67.6018 621.71 67.6158 643.75L67.6238 655H43.4228C21.8048 655 19.0078 655.187 17.2158 656.75C14.1228 659.45 13.6688 663.309 16.0838 666.379L18.1448 669H188.85C378.474 669 364 669.542 364 662.443C364 660.333 363.226 658.226 362 657C360.074 655.074 358.667 655 324 655H288L287.994 651.25C287.969 634.697 279.957 619.892 268.143 614.564C263.741 612.579 263.711 612.526 262.001 603.5C260.912 597.752 256.521 580.52 255.402 577.604C255.018 576.604 256.801 575.567 261.683 573.951C271.349 570.752 282.316 565.628 290.777 560.357L298.054 555.824L302.422 557.631L306.79 559.438L302.796 563.313C296.399 569.522 293.736 576.567 293.195 588.71C292.869 596.053 293.096 599.411 293.992 600.49C295.105 601.831 330.945 602 613.9 602C961.514 602 935.921 602.434 937.407 596.515C938.138 593.602 935.897 588.558 933.455 587.621C932.565 587.28 874.561 587 804.558 587H677.279L676.687 582.001C675.448 571.542 668.243 561.282 658.54 556.161L653.5 553.5L610.476 553.211L567.451 552.921L562.64 529.211C559.994 516.17 557.594 504.487 557.306 503.25L556.783 501H706.854H856.925L862.662 498.854C869.636 496.244 877.182 489.467 880.85 482.52L883.5 477.5V249.5V21.4998L880.828 16.4368C877.598 10.3168 871.432 4.54275 865.337 1.92975C860.914 0.0337548 854.006 0.000764176 474.667 0.0517642C90.5948 0.103764 88.4718 0.114763 83.2818 2.10976ZM862.526 18.9998C864.003 20.3748 865.628 22.5768 866.136 23.8918C866.691 25.3308 867.041 115.648 867.015 250.325C866.974 461.136 866.869 474.54 865.236 477.328C864.281 478.958 862.23 481.238 860.677 482.395L857.853 484.5L600.081 484.756L342.309 485.011L341.66 472.256C340.872 456.767 339.121 448.163 335.161 440.318C332.152 434.359 325.21 427 322.596 427C321.058 427 316.676 420.295 317.8 419.662C318.185 419.445 321.65 418.234 325.5 416.972C341.326 411.78 357.541 403.48 362.447 398.059L364.31 396H606.655H849V214.999V33.9968L473.75 34.2488L98.4998 34.4998L98.2708 87.4998C98.1448 116.65 98.0328 189.365 98.0208 249.089L97.9998 357.678L89.4998 358.612L80.9998 359.546V192.308V25.0698L84.1948 21.4298C85.9528 19.4288 88.3148 17.4158 89.4448 16.9568C90.5748 16.4978 264.376 16.2078 475.669 16.3108L859.839 16.4998L862.526 18.9998ZM835 215V382H604.57H374.14L375.07 378.757C379.565 363.082 369.496 351.402 346.267 345.347C337.901 343.167 334.348 342.802 321.5 342.802C306.323 342.802 289.975 344.942 278.521 348.427C275.783 349.26 273.22 349.618 272.826 349.221C272.082 348.472 268.531 341.029 225.003 249C191.322 177.789 192.064 179.235 186.694 174.285C182.19 170.133 174.579 167 169 167C160.285 167 149.204 173.836 145.597 181.437C144.721 183.283 140.587 199.353 136.41 217.147C132.234 234.941 125.291 263.45 120.981 280.5L113.145 311.5L113.073 179.75L113 47.9998H474H835V215ZM467.907 101.999C446.802 105.357 431.344 119.181 423.993 141.27C420.309 152.34 418.835 163.561 418.779 180.971C418.722 198.62 420.173 209.62 424.121 221.471C430.056 239.286 440.114 251.156 454.5 257.322C465.119 261.873 479.882 263.067 492.792 260.419C518.18 255.211 533.496 237.071 538.635 206.126C540.543 194.637 540.755 170.923 539.052 159.5C534.51 129.038 519.936 109.666 496.869 103.43C490.031 101.582 475.15 100.847 467.907 101.999ZM313.643 152.626L278 203.253V215.126V227H314H350V243.5V260H364.547H379.093L378.797 243.53L378.5 227.06L389 226.78L399.5 226.5V214.5V202.5L389.25 202.215L379 201.93V151.965V102H364.143H349.285L313.643 152.626ZM586.16 152.75L551.068 203.5L551.034 215.25L551 227H587H623V243.5V260H637H651V243.5V227H661.5H672V214.5V202H661.5H651V152V102H636.126H621.252L586.16 152.75ZM486.201 128.123C490.511 129.037 492.459 130.203 496.64 134.373C503.322 141.039 505.679 148.343 507.217 167.152C508.503 182.893 507.177 207.128 504.562 215.651C500.546 228.739 491.528 236 479.289 236C466.127 236 458.585 229.523 454.253 214.5C452.366 207.954 451.431 171.668 452.837 159.5C454.288 146.935 456.546 140.722 461.771 134.909C468.156 127.808 475.323 125.818 486.201 128.123ZM349.661 201.672C349.458 201.875 340.073 201.92 328.805 201.771L308.319 201.5L328.909 171.983L349.5 142.466L349.765 171.885C349.911 188.065 349.864 201.469 349.661 201.672ZM622.661 201.672C622.458 201.875 613.064 201.92 601.785 201.771L581.279 201.5L601.889 171.673L622.5 141.846L622.765 171.574C622.911 187.925 622.864 201.469 622.661 201.672ZM175.761 183.996C179.48 186.263 179.784 186.862 217.277 266C256.102 347.948 271 379.766 271 380.738C271 382.015 263.607 387.178 257.022 390.5C231.166 403.547 186.787 406.618 141.847 398.47C120.079 394.524 106.279 389.613 107.306 386.18C117.185 353.166 139.138 268.742 150.518 220C154.177 204.325 157.885 189.983 158.757 188.13C161.504 182.289 169.695 180.297 175.761 183.996ZM288 306.5V327H291H294V319.097V311.193L303.482 310.847C312.613 310.513 313.083 310.382 316.158 307.305C318.861 304.601 319.363 303.345 319.426 299.13C319.507 293.664 317.204 289.475 312.904 287.265C311.422 286.503 306.186 286.024 299.25 286.015L288 286V306.5ZM545.455 288.455C543.923 289.986 543 292.054 543 293.955C543 296.536 542.619 297 540.5 297C538.5 297 538 297.5 538 299.5C538 301.5 538.5 302 540.5 302H543V314.5V327H546H549V314.5V302H552C554.533 302 555 301.611 555 299.5C555 297.389 554.533 297 552 297C549.778 297 549 296.533 549 295.2C549 292.773 550.931 291 553.575 291C555.228 291 555.75 290.4 555.75 288.5C555.75 286.258 555.345 286 551.83 286C549 286 547.226 286.683 545.455 288.455ZM678 293.155V300.31L675.894 298.405C672.979 295.769 664.929 295.918 661.225 298.676C651.825 305.677 654.052 323.231 664.815 326.98C668.618 328.305 669.536 328.292 673.533 326.854C675.99 325.971 678 325.642 678 326.124C678 326.606 679.35 327 681 327H684V306.5V286H681H678V293.155ZM507 293C507 296.6 506.75 297 504.5 297C502.5 297 502 297.5 502 299.5C502 301.476 502.506 302 504.412 302C506.795 302 506.827 302.13 507.162 313.082C507.546 325.656 508.321 327 515.191 327C518.587 327 519 326.729 519 324.5C519 322.53 518.493 322 516.607 322C513.472 322 513 320.484 513 310.418V302H516.333C519.17 302 519.642 301.665 519.506 299.75C519.381 297.998 518.644 297.431 516.173 297.187C513.199 296.893 513 296.626 513 292.937C513 289.229 512.825 289 510 289C507.167 289 507 289.222 507 293ZM311.006 293.505C313.502 295.764 313.636 301.12 311.25 303.259C310.08 304.308 307.012 304.94 302 305.164L294.5 305.5L294.203 298.116L293.907 290.731L301.459 291.216C306.823 291.56 309.589 292.223 311.006 293.505ZM333.313 297.051C330.025 298.055 326 302.229 326 304.635C326 306.906 330.727 306.182 333.409 303.5C334.784 302.125 337.055 301 338.455 301C341.229 301 345.353 304.442 344.749 306.254C344.542 306.875 340.828 308.138 336.496 309.061C326.799 311.128 323.441 314.136 324.367 319.925C325.457 326.737 333.69 329.847 341.025 326.218C344.11 324.691 345 324.559 345 325.625C345 326.509 346.16 327 348.25 327.001L351.5 327.002L351.207 315.751C350.891 303.607 350.048 300.136 346.949 298.2C344.191 296.478 337.138 295.883 333.313 297.051ZM363.077 297.775C358.605 300.231 356 305.221 356 311.333C356 317.193 358.224 322.26 361.836 324.632C365.471 327.017 373.276 326.965 375.959 324.537C377.971 322.716 378 322.733 378 325.734C378 330.574 375.136 333.273 370 333.273C366.753 333.273 365.197 332.727 363.909 331.136C362.133 328.943 357 328.147 357 330.066C357 332.253 359.15 335.026 361.98 336.49C365.739 338.434 374.268 338.43 378.033 336.483C383.248 333.786 384 330.833 384 313.05V297H380.893C378.542 297 377.926 297.365 378.362 298.5C379.091 300.4 378.121 300.42 376.053 298.548C373.279 296.037 366.929 295.659 363.077 297.775ZM398.071 297.698C396.185 298.689 393.76 300.704 392.681 302.176C390.246 305.499 389.38 313.592 390.951 318.351C394.447 328.945 409.609 331.172 415.796 322L418.156 318.5L415.474 318.174C413.727 317.961 411.947 318.64 410.371 320.121C406.942 323.342 401.318 323.07 398.278 319.537C393.99 314.552 394.859 314 407 314H418L417.998 310.75C417.993 300.35 406.877 293.069 398.071 297.698ZM448.596 298.5C445.465 300.624 444.957 300.737 445.206 299.25C445.432 297.907 444.802 297.5 442.5 297.5C439.109 297.5 439.387 295.543 439.795 316.5L440 327H443H446V316.723C446 304.348 447.094 302 452.857 302C454.916 302 457.14 302.54 457.8 303.2C458.592 303.992 459 308.244 459 315.7V327H462.5H466V316.065C466 303.356 465.239 300.726 460.775 298.004C456.413 295.345 453.042 295.482 448.596 298.5ZM480.643 297.028C474.448 298.884 470.998 304.315 471.004 312.2C471.012 324.46 481.48 331.27 491.926 325.812C498.013 322.632 500.281 318.233 499.668 310.793C499.09 303.782 496.473 299.807 490.993 297.614C486.563 295.841 484.914 295.748 480.643 297.028ZM567.643 296.984C561.555 298.902 557.999 304.33 558.002 311.7C558.003 317.336 560.39 322.544 564.275 325.393C567.89 328.044 576.539 328.187 580.396 325.66C589.127 319.94 589.36 304.209 580.798 298.605C577.812 296.651 571.263 295.844 567.643 296.984ZM634.539 297.941C629.792 300.408 629.912 300.393 630.667 298.427C631.155 297.153 630.626 296.915 627.885 297.177L624.5 297.5V312V326.5L627.66 326.807L630.82 327.113L631.16 316.09C631.542 303.718 632.543 301.626 638.009 301.781C643.512 301.938 644 303.066 644 315.622V327H647H650L650.183 316.75C650.438 302.469 650.359 301.905 647.732 299.277C644.385 295.93 639.384 295.424 634.539 297.941ZM592 308.802C592 322.515 593.107 325.053 599.986 327.114C603.343 328.12 604.412 328.005 607.932 326.263C611.074 324.709 612 324.564 612 325.625C612 326.486 613.122 327 615 327H618V312V297H615H612V306.918C612 318.536 611.703 319.585 607.85 321.578C605.418 322.835 604.507 322.87 602.286 321.791C598.853 320.123 597.919 316.569 598.135 306L598.309 297.5L595.154 297.187L592 296.873V308.802ZM373.043 302C373.526 302 374.84 302.985 375.961 304.189C379.073 307.529 378.837 316.254 375.545 319.545C370.469 324.622 363.154 320.973 362.36 312.967C362.101 310.357 362.462 307.469 363.228 306.02C364.71 303.216 368.829 300.773 370.832 301.51C371.564 301.78 372.559 302 373.043 302ZM408.393 303.25C409.77 304.488 411.033 306.312 411.199 307.304C411.465 308.901 410.607 309.131 403.749 309.304C398.983 309.425 395.999 309.104 395.999 308.473C396.001 306.679 399.134 302.889 401.357 301.992C404.684 300.649 405.7 300.831 408.393 303.25ZM489.013 302.507C492.793 304.461 494.541 310.279 493.031 315.884C491.721 320.749 490.033 322.169 485.401 322.3C480.099 322.45 477 318.602 477 311.867C477 307.651 477.469 306.378 479.923 303.923C483.234 300.612 484.86 300.359 489.013 302.507ZM575.387 301.957C579.055 303.352 581.329 308.39 580.722 313.778C580.084 319.439 577.26 322.4 572.5 322.4C567.524 322.4 564.826 319.41 564.319 313.333C563.854 307.758 565.404 304.114 569.02 302.284C572.026 300.763 572.221 300.753 575.387 301.957ZM675.75 304.593C679.949 309.293 678.29 320.076 673.112 321.74C666.276 323.937 661.58 319.073 662.316 310.559C663.093 301.577 670.225 298.41 675.75 304.593ZM344.664 315.681C343.898 320.405 342.207 322.028 337.382 322.676C334.29 323.09 333.103 322.771 331.613 321.125C329.86 319.188 329.844 318.887 331.361 316.572C332.418 314.959 334.297 313.874 336.742 313.465C338.809 313.119 340.95 312.684 341.5 312.497C344.643 311.431 345.254 312.046 344.664 315.681ZM343.268 358.124C353.158 360.437 360.913 364.916 362.398 369.172C364.871 376.255 354.795 389.264 341.5 396.156C316.56 409.084 277.38 417.628 222 422.216C201.393 423.923 119.546 423.901 95.4998 422.182C51.8398 419.06 30.6468 415.499 20.5648 409.591C15.9628 406.894 12.9998 402.779 12.9998 399.084C12.9998 392.722 28.1308 383.849 47.1768 379.042C59.6208 375.902 84.4248 372 91.9458 372H96.7308L94.8658 378.728C92.0828 388.765 92.3528 392.522 96.1048 395.948C108.793 407.538 149.647 416.028 192.5 415.981C229.841 415.94 263.271 406.658 279.501 391.825C282.384 389.19 285.313 385.658 286.01 383.975C287.175 381.164 286.942 380.181 283.126 371.804C280.843 366.792 279.136 362.531 279.331 362.335C280.095 361.572 299.017 357.767 308.5 356.47C320.481 354.832 331.414 355.352 343.268 358.124ZM468.994 418.883C461.649 421.267 457.079 425.174 454.548 431.232C451.285 439.04 453.32 448.181 459.658 454.197C474.211 468.009 497.868 454.938 494.492 434.952C493.646 429.943 488.668 423.279 483.957 420.847C479.775 418.689 472.524 417.737 468.994 418.883ZM306.983 428.476C311.795 435.469 318.771 450.706 321.188 459.5C322.981 466.025 323.397 470.265 323.443 482.5C323.479 491.918 322.997 499.547 322.148 503C320.497 509.714 314.223 523.038 310.096 528.595L307.055 532.69L291.829 533.377C277.588 534.02 275.021 534.355 276.096 535.43C276.333 535.666 282.258 535.969 289.263 536.103C296.268 536.237 302 536.631 302 536.977C302 537.586 297.76 541.689 293.371 545.326C291.332 547.016 290.912 547.004 283.45 545.05C279.164 543.927 275.435 543.232 275.162 543.504C274.504 544.163 274.596 544.218 281.33 547.189L287.16 549.762L281.83 552.796C254.512 568.346 212.786 575.352 176.213 570.528C159.376 568.307 141.383 563.282 130.544 557.774L125.607 555.265L131.054 552.129C134.049 550.404 137.963 548.454 139.75 547.795C141.537 547.137 143 546.19 143 545.692C143 545.194 142.437 544.998 141.75 545.257C141.063 545.517 137.814 546.506 134.53 547.456C131.247 548.406 126.844 550.059 124.747 551.129L120.934 553.074L113.442 547.895C109.322 545.047 106.107 542.56 106.297 542.37C106.939 541.727 132.44 539 137.803 539C141.092 539 142.882 538.619 142.5 538C141.671 536.658 121.794 536.724 110.525 538.106L101.551 539.207L98.1938 535.353C93.1848 529.603 86.4688 519.117 83.5078 512.425C78.2348 500.508 76.5748 491.778 76.5808 476C76.5858 461.443 77.3578 455.856 81.2538 442.203L83.3348 434.907L103.418 435.703C133.194 436.885 204.174 436.547 222.5 435.137C250.71 432.966 278.588 429.193 293 425.594C302.451 423.235 303.53 423.457 306.983 428.476ZM169.603 458.024C166.208 463.153 156.6 470.244 149.225 473.063C146.076 474.267 140.231 475.479 136.236 475.758C129.455 476.231 128.929 476.435 128.328 478.83C127.952 480.327 128.13 481.543 128.757 481.752C129.48 481.993 129.531 483.148 128.914 485.298C125.138 498.466 132.306 514.016 144.208 518.476C161.032 524.779 178.222 505.87 174.096 485.598C173.414 482.244 172.004 478.04 170.964 476.255L169.073 473.009L174.09 466.381C178.856 460.084 180.321 455.119 177.226 455.75C176.552 455.888 176 455.55 176 455C176 452.475 172.034 454.35 169.603 458.024ZM243 457.04C243 460.85 245.898 466.563 249.876 470.592L252.928 473.684L250.863 479.092C249.188 483.476 248.877 486.109 249.22 493C249.695 502.564 251.658 507.43 257.162 512.689C261.351 516.691 264.788 518 271.105 518C283.882 518 293.028 506.743 292.985 491.068C292.976 488.006 292.55 484.837 292.037 484.026C291.423 483.054 291.513 482.298 292.303 481.805C293.191 481.25 293.215 480.598 292.396 479.278C291.191 477.336 289.931 476.874 279.5 474.549C268.694 472.141 261.1 467.931 254.138 460.488C249.759 455.807 247.363 454 245.534 454C243.378 454 243 454.453 243 457.04ZM391 501.807C391 502.25 388.75 513.812 386 527.5C383.25 541.188 381 552.525 381 552.693C381 552.862 367.997 553 352.105 553C325.871 553 322.604 553.187 316.623 555.035C310.585 556.9 309.789 556.942 307.081 555.542C305.456 554.702 303.896 553.641 303.614 553.184C303.331 552.727 306.645 548.829 310.977 544.523L318.854 536.692L331.134 537.386C337.887 537.767 343.128 537.795 342.78 537.447C342.193 536.86 325.179 534.023 322.152 534.007C321.188 534.002 321.422 533.074 322.973 530.75C324.165 528.962 326.781 524.125 328.786 520C330.79 515.875 333.471 511.67 334.743 510.655C336.015 509.641 337.952 507.053 339.048 504.905L341.041 501H366.02C379.759 501 391 501.363 391 501.807ZM546.043 526.75L551.575 552.5L474.627 552.756C432.306 552.897 397.489 552.822 397.256 552.59C396.887 552.22 405.332 507.353 406.638 502.75C407.105 501.106 411.166 501 473.823 501H540.51L546.043 526.75ZM159.066 503.035C161.953 504.58 161.454 505.602 156.684 507.911C151.609 510.367 150.047 510.486 147.479 508.608C145.86 507.424 145.775 506.976 146.914 505.604C149.257 502.78 155.947 501.366 159.066 503.035ZM275.418 502.607C277.449 503.386 277.425 504.873 275.345 507.171C273.256 509.48 267.277 509.582 264.11 507.364L261.775 505.729L266.637 503.951C272.19 501.922 273.221 501.764 275.418 502.607ZM207.354 510.692C206.174 510.923 204.428 511.975 203.473 513.03C201.987 514.672 201.914 515.379 202.969 517.926C203.647 519.563 205.282 521.61 206.601 522.474C208.578 523.77 209 524.885 209 528.816V533.585L204.556 534.774C199.943 536.008 193 541.248 193 543.497C193 545.832 195.867 545.947 200.708 543.805C207.576 540.767 217.983 540.752 224.111 543.772C229.054 546.208 232 545.905 232 542.961C232 540.726 227.4 537.336 221.164 534.977C216.788 533.322 216.481 532.966 216.198 529.22C215.955 526.002 216.355 524.865 218.263 523.363C221.907 520.494 224.25 516.362 223.525 514.08C222.529 510.942 214.586 509.278 207.354 510.692ZM87.9618 541.25C87.9828 541.663 87.4148 542 86.6988 542C85.9838 542 84.3878 539.862 83.1528 537.25L80.9078 532.5L84.4158 536.5C86.3458 538.7 87.9418 540.837 87.9618 541.25ZM163.676 542.25C160.116 547.021 159 549.525 159 552.743C159 557.894 161.663 559.643 168.766 559.156C170.288 559.051 171.575 557.862 172.684 555.536C174.31 552.126 174.284 551.97 171.018 545.536C169.194 541.941 167.341 539 166.901 539C166.462 539 165.01 540.462 163.676 542.25ZM96.3528 548.641C99.1838 551.193 103.188 554.403 105.25 555.774C107.313 557.144 109 558.543 109 558.883C109 559.222 107.446 560.74 105.547 562.255L102.094 565.01L96.7178 558.255C88.3288 547.714 86.7928 545.249 88.2428 544.665C90.6088 543.711 91.2138 544.007 96.3528 548.641ZM125.115 567.558C153.031 581.616 195.434 587.116 231 581.29C245.064 578.987 244.139 578.785 245.7 584.5C247.125 589.718 251 608.375 251 610.016C251 610.553 249.162 610.711 246.75 610.382C233.07 608.514 208.148 621.007 202.122 632.753L200.332 636.242L197.596 631.573C193.768 625.041 185.198 616.911 178.319 613.285C166.991 607.313 153.472 606.437 135.518 610.509C129.478 611.879 123.27 613 121.723 613C118.473 613 114 616.95 114 619.82C114 620.871 114.965 622.957 116.144 624.456C118.812 627.847 121.645 627.621 134.456 622.994C142.923 619.937 143.997 619.784 154.122 620.201C163.758 620.598 165.509 620.976 171.591 623.97C180.619 628.414 186.347 634.251 188.555 641.256C191.482 650.544 189.025 655 180.976 655C176.211 655 176.07 654.913 175.089 651.359C172.921 643.508 165.83 640.277 162.367 645.562C160.807 647.944 160.804 648.366 162.328 651.562L163.968 655L126.234 654.978C91.4468 654.958 88.1758 654.809 84.3538 653.074C80.7828 651.452 80.1158 650.648 79.5468 647.28C78.6028 641.691 81.4858 625.289 85.5438 613.162C89.1718 602.319 97.3768 585.398 101.236 580.803L103.5 578.105L116.258 584.462C128.779 590.701 148.771 597.761 160.365 600.038C163.59 600.671 168.189 602.432 170.585 603.952C176.809 607.899 185.978 609.688 191.885 608.108C194.409 607.433 197.267 606.163 198.237 605.285C200.864 602.908 200.514 597.423 197.545 594.455C194.736 591.645 195.001 591.683 177 591.491C165.414 591.367 161.869 590.914 152 588.293C138.778 584.782 125.804 579.74 116.263 574.405L109.625 570.692L113.562 567.361C115.728 565.529 117.624 564.023 117.775 564.015C117.926 564.007 121.229 565.601 125.115 567.558ZM650.316 570.125C655.421 572.754 658.973 577.388 660.379 583.25L661.038 586H485.019C364.688 586 309 585.673 309 584.968C309 583.148 312.02 576.637 313.788 574.643C314.73 573.582 316.85 571.88 318.5 570.861C321.389 569.076 327.566 569.007 484.816 569.004C603.833 569.001 648.724 569.305 650.316 570.125ZM261.901 626.184C268.056 629.277 268.722 629.949 271.801 636.175C275.416 643.486 276.59 648.512 275.603 652.446L274.962 655H253.981C242.441 655 233 654.716 233 654.368C233 654.02 233.957 652.187 235.127 650.294C236.863 647.485 237.053 646.412 236.161 644.454C234.859 641.596 231 640.394 228.103 641.945C225.518 643.328 222.981 648.09 222.707 652.076C222.506 654.992 222.362 655.076 218.008 654.792C212.247 654.417 210.572 651.614 211.891 644.554C212.944 638.919 216.885 633.693 223.431 629.253C235.312 621.193 249.685 620.046 261.901 626.184Z"
    fill="#251D3F" />
</svg>